<svg id="eFjSRytY9vU1" xmlns="http://www.w3.org/2000/svg" xmlns:xlink="http://www.w3.org/1999/xlink" viewBox="0 0 512 512" shape-rendering="geometricPrecision" text-rendering="geometricPrecision"><path d="M397,77l-5-2-4.5,6c-2.475,3.3-4.725,6.675-5,7.5s.85,4.65,2.5,8.5l3,7l7.5-1c4.615-.615,8.462-2.154,10-4c1.375-1.65,3.625-5.7,5-9l2.5-6-5.5-2.5c-3.025-1.375-7.75-3.4-10.5-4.5M257.5,98.5c-.825-.275-3.525-.275-6,0s-8.1.725-12.5,1-12.95,1.625-19,3-16.175,4.525-22.5,7-15.55,6.75-20.5,9.5-12.15,7.25-16,10-11.5,9.275-17,14.5-12.475,12.65-15.5,16.5-7.75,10.6-10.5,15-6.575,11.375-8.5,15.5-4.85,11.55-6.5,16.5-3.9,13.05-5,18-2.45,14.625-3,21.5-.55,17.9,0,24.5s2.35,17.175,4,23.5s5.925,17.8,9.5,25.5s9.425,18.275,13,23.5s9.2,12.425,12.5,16s8.7,8.975,12,12s10.95,8.875,17,13s13.7,8.85,17,10.5s9.825,4.575,14.5,6.5s12.775,4.625,18,6s12.2,2.95,15.5,3.5s10.725,1.45,16.5,2s13.425,1,17,1s8.525-.225,11-.5s10.8-1.85,18.5-3.5s19.175-5.025,25.5-7.5s16.225-7.2,22-10.5s15-9.6,20.5-14s10.45-8.675,11-9.5c.584-.876-1.704-1.916-5.5-2.5-3.575-.55-8.525-2.35-11-4s-5.85-4.8-7.5-7c-2.211-2.948-4.052-3.869-7-3.5-2.2.275-6.025.725-8.5,1s-10.35.5-17.5.5-14.575-.675-16.5-1.5-4.4-2.625-5.5-4-2-5.2-2-8.5.225-7.125.5-8.5-.85-3.85-2.5-5.5l-3-3-7.5,1.5L269,325l-2.5-4c-1.375-2.2-2.95-5.8-3.5-8s-2.125-4.9-3.5-6-3.4-4.025-4.5-6.5c-1.509-3.394-3.228-4.746-7-5.5-2.75-.55-7.25-.775-10-.5s-5.9-.175-7-1-1.775-1.95-1.5-2.5-.85-1.675-2.5-2.5c-1.948-.974-3.526-3.954-4.5-8.5l-1.5-7l3-1.5c1.65-.825,3.225-1.95,3.5-2.5s2.075-1.675,4-2.5s4.85-2.4,6.5-3.5l3-2-2-3.5c-1.1-1.925-2.225-5.3-2.5-7.5s.175-5.125,1-6.5s1.725-3.625,2-5s2.975-3.85,6-5.5c3.185-1.737,6.131-4.684,7-7c.825-2.2,2.85-4.9,4.5-6c2.101-1.401,2.551-2.599,1.5-4-.825-1.1-4.425-3.575-8-5.5L244,207l-.5-5c-.275-2.75-.05-6.575.5-8.5s.325-4.4-.5-5.5-1.725-3.35-2-5s1.525-5.925,4-9.5L250,167l-1.5-5c-.825-2.75-.825-5.225,0-5.5s2.175-.275,3,0s3.75-.175,6.5-1s7.025-3.75,9.5-6.5s7.2-5.9,10.5-7c4.165-1.388,7.529-3.988,11-8.5c2.75-3.575,5.225-7.85,5.5-9.5.346-2.076,2.963-4.078,8.5-6.5c4.4-1.925,8.675-4.625,9.5-6L314,109l-8-2.5c-4.4-1.375-12.5-3.4-18-4.5s-14.275-2.225-19.5-2.5-10.175-.725-11-1m66,30c-1.59-.954-4.685-.408-8.5,1.5-3.3,1.65-6.45,3.225-7,3.5s-3.925,2.3-7.5,4.5-6.725,4.9-7,6-.05,2.675.5,3.5s1.675,2.625,2.5,4s3.75,2.725,6.5,3s7.7-.175,11-1s7.35-2.625,9-4c2.211-1.843,3-4.734,3-11c0-5.836-.784-8.97-2.5-10m21,.5c-1.925,0-4.4.675-5.5,1.5-1.333,1-1.333,3.667,0,8l2,6.5l4.5,1.5c3.068,1.023,5.614.705,8-1L357,143l-1-5.5c-.708-3.895-2.021-5.938-4.5-7-1.925-.825-5.075-1.5-7-1.5M400,143c-1.65,0-3.675.9-4.5,2s-1.725,5.375-2,9.5.175,8.625,1,10s3.075,3.175,5,4L403,170l4.5-4.5c2.475-2.475,5.4-5.85,6.5-7.5c1.333-2,1.333-3.833,0-5.5-1.1-1.375-4.025-4.075-6.5-6s-5.85-3.5-7.5-3.5M271.5,154c-1.375-.55-3.85.125-5.5,1.5-2.054,1.712-2.527,3.131-1.5,4.5.825,1.1,1.95,1.775,2.5,1.5s2.35-1.85,4-3.5l3-3-2.5-1m8.5,3.5c-1.1-.275-2.9,1.075-4,3s-2.675,4.625-3.5,6-1.725,3.4-2,4.5.85,3.35,2.5,5s3.9,3.675,5,4.5s1.775,3.3,1.5,5.5l-.5,4-6.5,2.5c-3.575,1.375-8.525,2.95-11,3.5l-4.5,1-1,5c-.55,2.75-.325,6.35.5,8s4.2,4.125,7.5,5.5s6.45,3.175,7,4s1.675,4.425,2.5,8L275,234l11-.5c6.322-.287,11.851.351,13,1.5c1.465,1.465,3.737,1.198,8.5-1c3.575-1.65,9.65-5.25,13.5-8l7-5l2.5-9c1.375-4.95,4.3-11.475,6.5-14.5s3.775-6.4,3.5-7.5-5.675-4.25-12-7-15.325-6.575-20-8.5-9.175-3.275-10-3-1.275-1.525-1-4s.275-4.725,0-5-.275-1.175,0-2-.175-1.95-1-2.5-4.425-.775-8-.5-7.4.275-8.5,0m-21.5,6L256,162l-4,6c-2.2,3.3-4.675,7.8-5.5,10-.829,2.211-.606,6.46.5,9.5c1.589,4.37,2.616,5.397,5,5c1.65-.275,5.025-1.4,7.5-2.5s6.525-2.225,9-2.5l4.5-.5-3.5-2.5c-1.925-1.375-3.95-3.175-4.5-4s-1.675-4.65-2.5-8.5-2.625-7.675-4-8.5m92-1.5c-2.475,0-6.525.225-9,.5s-6.075.95-8,1.5-4.4,2.125-5.5,3.5c-1.135,1.419-1.351,3.581-.5,5c.825,1.375,2.625,2.95,4,3.5s6.55,1.675,11.5,2.5s10.575,2.4,12.5,3.5c2.587,1.478,4.413,1.348,7-.5c1.925-1.375,4.4-3.85,5.5-5.5s2.45-4.125,3-5.5c.567-1.417-.083-3.367-1.5-4.5-1.375-1.1-5.2-2.45-8.5-3s-8.025-1-10.5-1M231,182l5,1-1.5,5.5c-.825,3.025-3.975,8.2-7,11.5-4.338,4.733-7.084,6.317-13,7.5L207,209l3-10c1.764-5.88,4.442-11.236,6.5-13c1.925-1.65,4.85-3.45,6.5-4s5.25-.55,8,0m207,2c-3.3,0-6.9.45-8,1s-2.45,3.475-3,6.5l-1,5.5l5.5,1.5c3.025.825,7.525.825,10,0c2.87-.957,4.862-2.768,5.5-5c.55-1.925.1-4.85-1-6.5-1.401-2.101-3.797-3-8-3m-66,9c-1.1-.55-2.675-.55-3.5,0s-4.65.775-8.5.5-7.9.175-9,1-2.45,3.3-3,5.5-.55,4.675,0,5.5s2.8,2.4,5,3.5s4.675,1.775,5.5,1.5s3.3.175,5.5,1c2.574.965,4.178.787,4.5-.5.275-1.1,1.625-5.375,3-9.5c1.711-5.134,1.869-7.815.5-8.5M243.5,218c.275,0,1.175.45,2,1s.825,1.9,0,3-2.4,1.55-3.5,1c-1.192-.596-1.394-1.808-.5-3c.825-1.1,1.725-2,2-2M392,231c-1.65-.55-5.25-.325-8,.5s-7.7,2.4-11,3.5l-6,2l.5,4.5.5,4.5l8,2.5c5.669,1.771,8.874,1.917,11,.5c1.65-1.1,5.025-4.025,7.5-6.5L399,238l-2-3c-1.1-1.65-3.35-3.45-5-4m-133.5,1c-1.375,0-3.85,1.125-5.5,2.5s-3.9,3.175-5,4-2.225,3.525-2.5,6-.95,5.175-1.5,6-.325,2.4.5,3.5s1.95,3.575,2.5,5.5c.775,2.711-.014,4.402-3.5,7.5-2.475,2.2-6.075,5.125-8,6.5-2.476,1.769-3.354,3.67-3,6.5.324,2.596,1.729,4.527,4,5.5c1.925.825,8,2.4,13.5,3.5l10,2l7.5-5c4.125-2.75,11.325-6.125,16-7.5L292,276l1-7.5c.568-4.257.135-8.581-1-10-1.1-1.375-3.35-3.4-5-4.5s-5.025-1.55-7.5-1-5.175,1.225-6,1.5-1.95-.625-2.5-2-1.225-4.075-1.5-6-2.3-5.975-4.5-9-5.125-5.5-6.5-5.5m56.5,7l-5-2-4,3c-2.2,1.65-5.125,5.25-6.5,8-1.865,3.73-1.992,6.524-.5,11c1.289,3.866,3.245,6.533,5.5,7.5c1.925.825,5.975,1.5,9,1.5c4.352,0,6.439-1.044,10-5c2.475-2.75,5.85-5.675,7.5-6.5c2.313-1.157,2.771-2.53,2-6-.795-3.576-2.232-5.014-7-7-3.3-1.375-8.25-3.4-11-4.5M203.5,250c.825,1.1,1.275,2.675,1,3.5s-1.85.825-3.5,0c-2.382-1.191-2.588-1.912-1-3.5c1.333-1.333,2.5-1.333,3.5,0M187,256c.55,0,1.45.675,2,1.5s.775,3.3.5,5.5-1.4,4.675-2.5,5.5-3.125,1.05-4.5.5c-1.712-.685-2.185-2.104-1.5-4.5.55-1.925,1.9-4.625,3-6s2.45-2.5,3-2.5m186.5,4.5c-3.575-.275-7.175.4-8,1.5s-3.975,3.575-7,5.5-6.175,3.725-7,4-2.85,2.525-4.5,5-3.45,4.725-4,5s.8,1.85,3,3.5s6.7,3.225,10,3.5s8.025.275,10.5,0s7.875-1.625,12-3L386,283l1.5-7.5L389,268l-4.5-3.5c-2.574-2.002-7.282-3.714-11-4M217,275.5c1.1.275,2.225,1.625,2.5,3l.5,2.5-3-1.5c-1.65-.825-2.775-2.175-2.5-3s1.4-1.275,2.5-1m78,4.5c-2.75,0-6.125.45-7.5,1s-5.65,2.575-9.5,4.5-7.9,4.625-9,6-2.45,4.3-3,6.5-.55,4.675,0,5.5s4.15,1.5,8,1.5s9.25.9,12,2s6.125,3.8,7.5,6s3.625,4.675,5,5.5c1.75,1.05,3.4.6,5.5-1.5c1.65-1.65,5.25-3.45,8-4s6.575-1.675,8.5-2.5s5.3-3.3,7.5-5.5s4.225-4.675,4.5-5.5-1.525-3.975-4-7-5.85-5.95-7.5-6.5-3.45-.775-4-.5-4.6-.85-9-2.5-10.25-3-13-3m125.5,14c-1.448,0-2.921,1.473-3.5,3.5-.55,1.925-1.225,4.625-1.5,6s.85,3.4,2.5,4.5c2,1.333,4.333,1.333,7,0l4-2-.5-4.5c-.275-2.475-.95-4.725-1.5-5s-1.675-.95-2.5-1.5-2.625-1-4-1m-71,10c-1.375-.55-4.975-.55-8,0s-6.175.775-7,.5-3.3,1.525-5.5,4c-2.372,2.668-6.443,5.111-10,6-3.3.825-7.575,3.075-9.5,5s-4.4,5.75-5.5,8.5-3.35,5.675-5,6.5-3.225,3.075-3.5,5c-.384,2.687.545,4.081,4,6c2.475,1.375,9.9,2.725,16.5,3c7.395.308,14.111-.459,17.5-2c3.025-1.375,7.075-3.85,9-5.5s3.725-3.675,4-4.5s2.075-1.95,4-2.5c2.18-.623,4.82-3.452,7-7.5c1.925-3.575,3.275-8.3,3-10.5s-1.85-4.9-3.5-6-3.45-2.675-4-3.5-2.125-1.95-3.5-2.5m-72,5c-2.475-.55-5.175-.55-6,0s-1.95,2.35-2.5,4c-.631,1.892-.077,3.554,1.5,4.5c1.375.825,5.65.6,9.5-.5l7-2-2.5-2.5c-1.375-1.375-4.525-2.95-7-3.5M220,318.5c1.65.275,4.8,1.175,7,2s5.125,2.175,6.5,3s2.275,2.4,2,3.5-2.075,2.675-4,3.5-6.425,1.275-10,1L215,331l-1-3.5c-.55-1.925-.1-4.85,1-6.5c1.176-1.764,3.236-2.794,5-2.5m65,14c.55.275.55,2.3,0,4.5l-1,4-2.5-2.5c-2-2-2-2.9,0-4.5c1.375-1.1,2.95-1.775,3.5-1.5M270.5,336c.275,0,.725.9,1,2s-.175,2.45-1,3-2.175.55-3,0-.6-1.9.5-3s2.225-2,2.5-2m107,6c-.825,0-4.875.675-9,1.5s-8.625,2.4-10,3.5-2.275,2.45-2,3s2.975,1.9,6,3s8.425,2,12,2s7.175-.45,8-1s.375-3.475-1-6.5-3.175-5.5-4-5.5m-94,20c.275,0,2.3,1.125,4.5,2.5l4,2.5-3.5,4.5L285,376l-3.5-2c-1.925-1.1-3.725-2.45-4-3s-.05-2.125.5-3.5s1.9-3.175,3-4s2.225-1.5,2.5-1.5" transform="matrix(1.348548 0 0 1.348548-109.040677-73.719986)" fill="#e1dbdb" fill-rule="evenodd"/><path d="M391.5,67c-.825,0-3.075,1.35-5,3s-5.3,5.475-7.5,8.5-4.225,7.3-4.5,9.5s1.3,8.05,3.5,13c3.199,7.198,4.801,9.2,8,10c2.2.55,7.375.55,11.5,0s9.3-2.35,11.5-4s5.8-7.05,8-12s3.775-10.35,3.5-12-2.975-4.575-6-6.5-9.1-4.85-13.5-6.5-8.675-3-9.5-3M397,77c2.75,1.1,7.475,3.125,10.5,4.5L413,84l-2.5,6c-1.375,3.3-3.625,7.35-5,9-1.538,1.846-5.385,3.385-10,4l-7.5,1-3-7c-1.65-3.85-2.775-7.675-2.5-8.5s2.525-4.2,5-7.5l4.5-6l5,2M266,91c-6.6-.55-14.025-.775-16.5-.5s-8.1.725-12.5,1-12.95,1.625-19,3-16.175,4.525-22.5,7-15.775,6.75-21,9.5-13.325,7.7-18,11-13,10.275-18.5,15.5-12.475,12.65-15.5,16.5-7.75,10.6-10.5,15-7.025,12.275-9.5,17.5-5.85,13.55-7.5,18.5-3.9,13.05-5,18-2.45,14.625-3,21.5-1,15.2-1,18.5.9,11.625,2,18.5s3.575,17.45,5.5,23.5s6.2,16.4,9.5,23s8.925,16.275,12.5,21.5s9.2,12.425,12.5,16s8.7,8.975,12,12s10.95,8.875,17,13s14.6,9.3,19,11.5s11.825,5.575,16.5,7.5s12.775,4.625,18,6s12.2,2.95,15.5,3.5s10.725,1.45,16.5,2s14.325,1,19,1s10.525-.225,13-.5s10.8-1.85,18.5-3.5s19.175-5.025,25.5-7.5s16.45-7.2,22.5-10.5s15.95-9.825,22-14.5s12.125-10.525,13.5-13s2.275-5.625,2-7c-.367-1.834.565-2.633,3.5-3c2.2-.275,4.9-1.175,6-2s2.45-3.075,3-5s.1-6.2-1-9.5-2.675-6.9-3.5-8-3.075-2.45-5-3-7.1-.55-11.5,0-8.225,1.225-8.5,1.5s1.3-2.875,3.5-7s4-9.975,4-13-.9-6.625-2-8-2.9-3.175-4-4-2.675-2.4-3.5-3.5-1.95-2.45-2.5-3s3.05-1.225,8-1.5s12.825-1.85,17.5-3.5l8.5-3l2.5-7c1.375-3.85,2.725-9.25,3-12c.319-3.187-.769-6.813-3-10l-3.5-5l4.5-2.5c2.475-1.375,6.075-4.525,8-7s3.725-6.3,4-8.5c.311-2.485-.825-5.515-3-8-1.925-2.2-5.3-4.9-7.5-6s-5.8-1.775-8-1.5-8.5,1.85-14,3.5-10.9,4.125-12,5.5-2.225,4.75-2.5,7.5.4,7.25,1.5,10s1.55,5.225,1,5.5-2.35,1.625-4,3-5.475,3.85-8.5,5.5-6.85,5.025-8.5,7.5-3.45,4.725-4,5-1.45,2.075-2,4-.325,4.85.5,6.5c1.006,2.012.348,1.683-2-1-1.925-2.2-5.75-4.9-8.5-6s-6.125-2.225-7.5-2.5c-1.484-.297-.875-.703,1.5-1c2.2-.275,5.575-2.075,7.5-4s4.625-4.4,6-5.5s3.625-2.675,5-3.5s2.95-3.075,3.5-5s.55-5.75,0-8.5-2.125-6.35-3.5-8-4.75-4.125-7.5-5.5l-5-2.5l4.5-3c3.305-2.203,5.297-5.391,7.5-12c2.293-6.879,3.354-8.529,4.5-7c.825,1.1,4.2,3.35,7.5,5s8.025,3.225,10.5,3.5s5.85.725,7.5,1s3.9-.175,5-1s2.9-3.75,4-6.5s2.9-8.15,4-12s1.325-8.575.5-10.5-2.625-4.175-4-5L374,184l3-7.5c1.65-4.125,2.55-9.075,2-11s-2.125-4.4-3.5-5.5-4.3-2.675-6.5-3.5-5.575-1.95-7.5-2.5l-3.5-1l2.5-2c1.375-1.1,2.95-3.575,3.5-5.5s.775-5.525.5-8-1.625-6.525-3-9c-1.746-3.143-4.159-4.952-8-6-3.025-.825-7.975-1.275-11-1s-6.625,1.175-8,2-2.95.825-3.5,0-2.8-2.175-5-3-5.125-1.275-6.5-1c-2,.4-2-.5,0-4.5c1.375-2.75,2.05-6.575,1.5-8.5-.633-2.216-2.834-4.234-6-5.5-2.75-1.1-9.05-3.125-14-4.5s-12.15-2.95-16-3.5-12.4-1.45-19-2m-8.5,7.5c.825.275,5.775.725,11,1s14,1.4,19.5,2.5s13.6,3.125,18,4.5l8,2.5-1.5,2.5c-.825,1.375-5.1,4.075-9.5,6-5.537,2.422-8.154,4.424-8.5,6.5-.275,1.65-2.75,5.925-5.5,9.5-3.471,4.512-6.835,7.112-11,8.5-3.3,1.1-8.025,4.25-10.5,7s-6.75,5.675-9.5,6.5-5.675,1.275-6.5,1-2.175-.275-3,0-.825,2.75,0,5.5l1.5,5-4.5,6.5c-2.475,3.575-4.275,7.85-4,9.5s1.175,3.9,2,5s1.05,3.575.5,5.5-.775,5.75-.5,8.5l.5,5l6.5,3.5c3.575,1.925,7.175,4.4,8,5.5c1.051,1.401.601,2.599-1.5,4-1.65,1.1-3.675,3.8-4.5,6-.869,2.316-3.815,5.263-7,7-3.025,1.65-5.725,4.125-6,5.5s-1.175,3.625-2,5-1.275,4.3-1,6.5s1.4,5.575,2.5,7.5l2,3.5-3,2c-1.65,1.1-4.575,2.675-6.5,3.5s-3.725,1.95-4,2.5-1.85,1.675-3.5,2.5l-3,1.5l1.5,7c.974,4.546,2.552,7.526,4.5,8.5c1.65.825,2.775,1.95,2.5,2.5s.4,1.675,1.5,2.5s4.25,1.275,7,1s7.25-.05,10,.5c3.772.754,5.491,2.106,7,5.5c1.1,2.475,3.125,5.4,4.5,6.5s2.95,3.8,3.5,6s2.125,5.8,3.5,8l2.5,4l7.5-1.5L284,322l3,3c1.65,1.65,2.775,4.125,2.5,5.5s-.5,5.2-.5,8.5.9,7.125,2,8.5s3.575,3.175,5.5,4s9.35,1.5,16.5,1.5s15.025-.225,17.5-.5s6.3-.725,8.5-1c2.948-.369,4.789.552,7,3.5c1.65,2.2,5.025,5.35,7.5,7s7.425,3.45,11,4c3.796.584,6.084,1.624,5.5,2.5-.55.825-5.5,5.1-11,9.5s-14.725,10.7-20.5,14-15.675,8.025-22,10.5-17.8,5.85-25.5,7.5-16.025,3.225-18.5,3.5-7.425.5-11,.5-11.225-.45-17-1-13.2-1.45-16.5-2-10.275-2.125-15.5-3.5-13.325-4.075-18-6-11.2-4.85-14.5-6.5-10.95-6.375-17-10.5-13.7-9.975-17-13-8.7-8.425-12-12-8.925-10.775-12.5-16-9.425-15.8-13-23.5-7.85-19.175-9.5-25.5-3.45-16.9-4-23.5-.55-17.625,0-24.5s1.9-16.55,3-21.5s3.35-13.05,5-18s4.575-12.375,6.5-16.5s5.75-11.1,8.5-15.5s7.475-11.15,10.5-15s10-11.275,15.5-16.5s13.15-11.75,17-14.5s11.05-7.25,16-10s14.175-7.025,20.5-9.5s16.45-5.625,22.5-7s14.6-2.725,19-3s10.025-.725,12.5-1s5.175-.275,6,0m66,30c1.716,1.03,2.5,4.164,2.5,10c0,6.266-.789,9.157-3,11-1.65,1.375-5.7,3.175-9,4s-8.25,1.275-11,1-5.675-1.625-6.5-3-1.95-3.175-2.5-4-.775-2.4-.5-3.5s3.425-3.8,7-6s6.95-4.225,7.5-4.5s3.7-1.85,7-3.5c3.815-1.908,6.91-2.454,8.5-1.5m21,.5c1.925,0,5.075.675,7,1.5c2.479,1.062,3.792,3.105,4.5,7l1,5.5-3.5,2.5c-2.386,1.705-4.932,2.023-8,1L341,145l-2-6.5c-1.333-4.333-1.333-7,0-8c1.1-.825,3.575-1.5,5.5-1.5m54,6c-1.925,0-5.075,1.125-7,2.5s-4.175,4.75-5,7.5-1.5,8.15-1.5,12s.9,9.025,2,11.5c1.456,3.276,3.769,5.18,8.5,7c3.575,1.375,8.075,2.05,10,1.5s5.525-3.025,8-5.5s5.625-6.075,7-8s2.725-5.3,3-7.5-.85-5.8-2.5-8-5.025-5.575-7.5-7.5-6.075-3.95-8-4.5-5.075-1-7-1m1.5,8c1.65,0,5.025,1.575,7.5,3.5s5.4,4.625,6.5,6c1.333,1.667,1.333,3.5,0,5.5-1.1,1.65-4.025,5.025-6.5,7.5L403,170l-3.5-1.5c-1.925-.825-4.175-2.625-5-4s-1.275-5.875-1-10s1.175-8.4,2-9.5s2.85-2,4.5-2m-66,7.5c.55.275,2.575,1.175,4.5,2s3.05,1.725,2.5,2-3.7.95-7,1.5-5.55.55-5,0s1.675-2.125,2.5-3.5s1.95-2.275,2.5-2M271.5,154l2.5,1-3,3c-1.65,1.65-3.45,3.225-4,3.5s-1.675-.4-2.5-1.5c-1.027-1.369-.554-2.788,1.5-4.5c1.65-1.375,4.125-2.05,5.5-1.5m8.5,3.5c1.1.275,4.925.275,8.5,0s7.175-.05,8,.5s1.275,1.675,1,2.5-.275,1.725,0,2s.275,2.525,0,5s.175,4.275,1,4s5.325,1.075,10,3s13.675,5.75,20,8.5s11.725,5.9,12,7-1.3,4.475-3.5,7.5-5.125,9.55-6.5,14.5l-2.5,9-7,5c-3.85,2.75-9.925,6.35-13.5,8-4.763,2.198-7.035,2.465-8.5,1-1.149-1.149-6.678-1.787-13-1.5l-11,.5-1.5-6.5c-.825-3.575-1.95-7.175-2.5-8s-3.7-2.625-7-4-6.675-3.85-7.5-5.5-1.05-5.25-.5-8l1-5l4.5-1c2.475-.55,7.425-2.125,11-3.5L279,190l.5-4c.275-2.2-.4-4.675-1.5-5.5s-3.35-2.85-5-4.5-2.775-3.9-2.5-5s1.175-3.125,2-4.5s2.4-4.075,3.5-6s2.9-3.275,4-3m43.5,1.5c.275,0-.175.675-1,1.5s-2.175,3.075-3,5L318,169l-6-2.5-6-2.5l6-1.5c3.3-.825,7.125-1.95,8.5-2.5s2.725-1,3-1m-65,4.5c1.375.825,3.175,4.65,4,8.5s1.95,7.675,2.5,8.5s2.575,2.625,4.5,4L273,187l-4.5.5c-2.475.275-6.525,1.4-9,2.5s-5.85,2.225-7.5,2.5c-2.384.397-3.411-.63-5-5-1.106-3.04-1.329-7.289-.5-9.5.825-2.2,3.3-6.7,5.5-10l4-6l2.5,1.5m92-1.5c2.475,0,7.2.45,10.5,1s7.125,1.9,8.5,3c1.417,1.133,2.067,3.083,1.5,4.5-.55,1.375-1.9,3.85-3,5.5s-3.575,4.125-5.5,5.5c-2.587,1.848-4.413,1.978-7,.5-1.925-1.1-7.55-2.675-12.5-3.5s-10.125-1.95-11.5-2.5-3.175-2.125-4-3.5c-.851-1.419-.635-3.581.5-5c1.1-1.375,3.575-2.95,5.5-3.5s5.525-1.225,8-1.5s6.525-.5,9-.5m86,14c-3.575,0-8.3.9-10.5,2s-4.675,3.8-5.5,6-1.725,6.475-2,9.5.4,6.625,1.5,8s4.7,3.4,8,4.5s8.25,1.775,11,1.5s6.8-1.4,9-2.5c2.488-1.244,4.756-4.08,6-7.5c1.1-3.025,1.55-7.525,1-10s-1.9-5.625-3-7-3.575-2.95-5.5-3.5-6.425-1-10-1M231,182c-2.75-.55-6.35-.55-8,0s-4.575,2.35-6.5,4c-2.058,1.764-4.736,7.12-6.5,13l-3,10l7.5-1.5c5.916-1.183,8.662-2.767,13-7.5c3.025-3.3,6.175-8.475,7-11.5L236,183l-5-1m207,2c4.203,0,6.599.899,8,3c1.1,1.65,1.55,4.575,1,6.5-.638,2.232-2.63,4.043-5.5,5-2.475.825-6.975.825-10,0L426,197l1-5.5c.55-3.025,1.9-5.95,3-6.5s4.7-1,8-1m-66,9c1.369.685,1.211,3.366-.5,8.5-1.375,4.125-2.725,8.4-3,9.5-.322,1.287-1.926,1.465-4.5.5-2.2-.825-4.675-1.275-5.5-1s-3.3-.4-5.5-1.5-4.45-2.675-5-3.5-.55-3.3,0-5.5s1.9-4.675,3-5.5s5.15-1.275,9-1s7.675.05,8.5-.5s2.4-.55,3.5,0M243.5,218c-.275,0-1.175.9-2,2-.894,1.192-.692,2.404.5,3c1.1.55,2.675.1,3.5-1s.825-2.45,0-3-1.725-1-2-1M392,231c1.65.55,3.9,2.35,5,4l2,3-4.5,4.5c-2.475,2.475-5.85,5.4-7.5,6.5-2.126,1.417-5.331,1.271-11-.5l-8-2.5-.5-4.5-.5-4.5l6-2c3.3-1.1,8.25-2.675,11-3.5s6.35-1.05,8-.5m-133.5,1c1.375,0,4.3,2.475,6.5,5.5s4.225,7.075,4.5,9s.95,4.625,1.5,6s1.675,2.275,2.5,2s3.525-.95,6-1.5s5.85-.1,7.5,1s3.9,3.125,5,4.5c1.135,1.419,1.568,5.743,1,10l-1,7.5-8.5,2.5c-4.675,1.375-11.875,4.75-16,7.5l-7.5,5-10-2c-5.5-1.1-11.575-2.675-13.5-3.5-2.271-.973-3.676-2.904-4-5.5-.354-2.83.524-4.731,3-6.5c1.925-1.375,5.525-4.3,8-6.5c3.486-3.098,4.275-4.789,3.5-7.5-.55-1.925-1.675-4.4-2.5-5.5s-1.05-2.675-.5-3.5s1.225-3.525,1.5-6s1.4-5.175,2.5-6s3.35-2.625,5-4s4.125-2.5,5.5-2.5m56.5,7c2.75,1.1,7.7,3.125,11,4.5c4.768,1.986,6.205,3.424,7,7c.771,3.47.313,4.843-2,6-1.65.825-5.025,3.75-7.5,6.5-3.561,3.956-5.648,5-10,5-3.025,0-7.075-.675-9-1.5-2.255-.967-4.211-3.634-5.5-7.5-1.492-4.476-1.365-7.27.5-11c1.375-2.75,4.3-6.35,6.5-8l4-3l5,2m-26.5,2h4.5l-1,2.5c-.55,1.375-1.225,2.275-1.5,2s-3.425-.95-7-1.5l-6.5-1l3.5-1c1.925-.55,5.525-1,8-1m-85,9c-1-1.333-2.167-1.333-3.5,0-1.588,1.588-1.382,2.309,1,3.5c1.65.825,3.225.825,3.5,0s-.175-2.4-1-3.5M187,256c-.55,0-1.9,1.125-3,2.5s-2.45,4.075-3,6c-.685,2.396-.212,3.815,1.5,4.5c1.375.55,3.4.325,4.5-.5s2.225-3.3,2.5-5.5.05-4.675-.5-5.5-1.45-1.5-2-1.5m186.5,4.5c3.718.286,8.426,1.998,11,4L389,268l-1.5,7.5L386,283l-7.5,2.5c-4.125,1.375-9.525,2.725-12,3s-7.2.275-10.5,0-7.8-1.85-10-3.5-3.55-3.225-3-3.5s2.35-2.525,4-5s3.675-4.725,4.5-5s3.975-2.075,7-4s6.175-4.4,7-5.5s4.425-1.775,8-1.5M217,275.5c-1.1-.275-2.225.175-2.5,1s.85,2.175,2.5,3l3,1.5-.5-2.5c-.275-1.375-1.4-2.725-2.5-3m78,4.5c2.75,0,8.6,1.35,13,3s8.45,2.775,9,2.5s2.35-.05,4,.5s5.025,3.475,7.5,6.5s4.275,6.175,4,7-2.3,3.3-4.5,5.5-5.575,4.675-7.5,5.5-5.75,1.95-8.5,2.5-6.35,2.35-8,4c-2.1,2.1-3.75,2.55-5.5,1.5-1.375-.825-3.625-3.3-5-5.5s-4.75-4.9-7.5-6-8.15-2-12-2-7.45-.675-8-1.5-.55-3.3,0-5.5s1.9-5.125,3-6.5s5.15-4.075,9-6s8.125-3.95,9.5-4.5s4.75-1,7.5-1m127,6.5c-3.3-.275-7.125.4-8.5,1.5s-3.175,3.8-4,6-1.725,6.25-2,9s.4,6.35,1.5,8s4.25,3.9,7,5s6.8,1.55,9,1s5.35-1.9,7-3s3.45-3.575,4-5.5.775-5.75.5-8.5-1.175-5.9-2-7-2.625-2.9-4-4-5.2-2.225-8.5-2.5m-1.5,7.5c1.375,0,3.175.45,4,1s1.95,1.225,2.5,1.5s1.225,2.525,1.5,5l.5,4.5-4,2c-2.667,1.333-5,1.333-7,0-1.65-1.1-2.775-3.125-2.5-4.5s.95-4.075,1.5-6c.579-2.027,2.052-3.5,3.5-3.5m-71,10c1.375.55,2.95,1.675,3.5,2.5s2.35,2.4,4,3.5s3.225,3.8,3.5,6-1.075,6.925-3,10.5c-2.18,4.048-4.82,6.877-7,7.5-1.925.55-3.725,1.675-4,2.5s-2.075,2.85-4,4.5-5.975,4.125-9,5.5c-3.389,1.541-10.105,2.308-17.5,2-6.6-.275-14.025-1.625-16.5-3-3.455-1.919-4.384-3.313-4-6c.275-1.925,1.85-4.175,3.5-5s3.9-3.75,5-6.5s3.575-6.575,5.5-8.5s6.2-4.175,9.5-5c3.557-.889,7.628-3.332,10-6c2.2-2.475,4.675-4.275,5.5-4s3.975.05,7-.5s6.625-.55,8,0m-72,5c2.475.55,5.625,2.125,7,3.5L287,315l-7,2c-3.85,1.1-8.125,1.325-9.5.5-1.577-.946-2.131-2.608-1.5-4.5.55-1.65,1.675-3.45,2.5-4s3.525-.55,6,0M220,318.5c-1.764-.294-3.824.736-5,2.5-1.1,1.65-1.55,4.575-1,6.5l1,3.5l6.5.5c3.575.275,8.075-.175,10-1s3.725-2.4,4-3.5-.625-2.675-2-3.5-4.3-2.175-6.5-3-5.35-1.725-7-2m65,14c-.55-.275-2.125.4-3.5,1.5-2,1.6-2,2.5,0,4.5L284,341l1-4c.55-2.2.55-4.225,0-4.5M270.5,336c-.275,0-1.4.9-2.5,2s-1.325,2.45-.5,3s2.175.55,3,0s1.275-1.9,1-3-.725-2-1-2m107,6c.825,0,2.625,2.475,4,5.5s1.825,5.95,1,6.5-4.425,1-8,1-8.975-.9-12-2-5.725-2.45-6-3s.625-1.9,2-3s5.875-2.675,10-3.5s8.175-1.5,9-1.5m-94,20c-.275,0-1.4.675-2.5,1.5s-2.45,2.625-3,4-.775,2.95-.5,3.5s2.075,1.9,4,3l3.5,2l3.5-4.5L292,367l-4-2.5c-2.2-1.375-4.225-2.5-4.5-2.5" transform="matrix(1.348548 0 0 1.348548-108.938291-73.719986)" fill-rule="evenodd"/></svg>
